# xmcd CD database file
#
# Track frame offsets:
#	150
#	21462
#	49882
#	64550
#
# Disc length: 1323 seconds
#
# Revision: 0
# Processed by: cddbd v1.5.2PL0 Copyright (c) Steve Scherf et al.
# Submitted via: CDex 1.83
#
DISCID=31052904
DTITLE=John Coltrane - Ballades de Prestige - Mon CD Jazz magazine
DYEAR=2017
DGENRE=Jazz
TTITLE0=John Coltrane - While My Lady Sleeps
TTITLE1=	 - Violets for Your Furs
TTITLE2=Kenny Burrell - Why Was I Born?
TTITLE3=John Cotrane - Time After Time
EXTD=YEAR: 2017
EXTT0=
EXTT1=
EXTT2=
EXTT3=
PLAYORDER=
